<svg width="25" height="25" viewBox="0 0 25 25" fill="none" xmlns="http://www.w3.org/2000/svg">
<path d="M23.4595 16.6104L20.7199 13.8698C19.9894 13.1393 18.7107 13.1393 17.9802 13.8698L16.6104 15.2396L9.76136 8.39054L11.1312 7.02072C11.8868 6.26607 11.8868 5.03575 11.1312 4.2811L8.38961 1.5405C7.65918 0.810066 6.38042 0.810066 5.64999 1.5405L2.90939 4.28013C2.64686 4.54169 2.4163 4.77225 2.24289 4.98538L2.22352 4.966L1.54152 5.65091C1.1763 6.01613 0.975769 6.50244 0.975769 7.02072C0.975769 7.539 1.1763 8.02532 1.54152 8.39054L16.6124 23.4614C16.9776 23.8266 17.4639 24.0271 17.9822 24.0271C18.5005 24.0271 18.9868 23.8266 19.352 23.4614L21.4067 21.4067C21.4174 21.397 21.4271 21.3863 21.4358 21.3766C21.5007 21.3098 21.77 21.0405 22.0897 20.7208L23.4595 19.351C24.2151 18.5953 24.2151 17.365 23.4595 16.6104ZM20.7189 19.35C20.4099 19.6581 20.1929 19.876 20.0437 20.0436L20.0359 20.0359L17.9841 22.0887C17.9841 22.0887 17.9831 22.0887 17.9812 22.0887V22.0906L2.91133 7.02072L3.59624 6.33485C3.60302 6.3271 3.61077 6.31935 3.61755 6.3116C3.67664 6.25154 3.95177 5.97641 4.27921 5.64897L7.01883 2.90935L9.76039 5.64994L8.39058 7.01975C7.63496 7.77441 7.63496 9.00472 8.39058 9.75938L15.2396 16.6084C15.9701 17.3389 17.2488 17.3389 17.9793 16.6084L19.3491 15.2386L22.0887 17.9792L20.7189 19.35Z" fill="#EE8555"/>
</svg>
