<svg width="42" height="42" viewBox="0 0 42 42" fill="none" xmlns="http://www.w3.org/2000/svg"><path d="M40.7589 38.3728L27.8209 25.3672C29.883 22.7752 31.125 19.4998 31.125 15.9375C31.125 7.56413 24.3126 0.75 15.9375 0.75C7.56244 0.75 0.75 7.56413 0.75 15.9375C0.75 24.3109 7.56244 31.125 15.9375 31.125C19.5352 31.125 22.8394 29.8611 25.4449 27.7635L38.3661 40.7522C38.6951 41.0846 39.1288 41.25 39.5625 41.25C39.9928 41.25 40.4231 41.0863 40.7522 40.7589C41.4137 40.1008 41.4171 39.0326 40.7589 38.3728ZM4.125 15.9375C4.125 9.42375 9.42544 4.125 15.9375 4.125C22.4496 4.125 27.75 9.42375 27.75 15.9375C27.75 22.4513 22.4496 27.75 15.9375 27.75C9.42544 27.75 4.125 22.4513 4.125 15.9375ZM23.2596 10.0177C23.7321 10.821 23.4654 11.8554 22.6622 12.3279C22.3939 12.4882 22.0986 12.5625 21.8083 12.5625C21.2295 12.5625 20.6676 12.2655 20.3537 11.7323C19.6669 10.5679 18.5666 9.73931 17.2571 9.4035C15.951 9.06431 14.5841 9.25838 13.4214 9.94519C12.6199 10.4177 11.5838 10.1511 11.1113 9.34781C10.6388 8.54456 10.9054 7.51181 11.7086 7.03762C13.6476 5.8935 15.9172 5.57119 18.1026 6.13481C20.2811 6.69675 22.1154 8.07544 23.2596 10.0177Z" fill="#EE8555"/></svg>
