<svg width="14" height="22" viewBox="0 0 14 22" fill="none" xmlns="http://www.w3.org/2000/svg">
<path d="M14 7.0354C14 3.17578 10.8596 0.0354004 7 0.0354004C3.14038 0.0354004 0 3.17578 0 7.0354C0 8.03115 0.202125 8.98665 0.601125 9.87828C0.602875 9.88265 0.60725 9.88528 0.609 9.88965C0.61075 9.89403 0.609875 9.8984 0.611625 9.9019L6.21163 21.472C6.24137 21.5342 6.2825 21.5867 6.32363 21.6374C6.33238 21.6488 6.33763 21.661 6.34638 21.6724C6.41638 21.7503 6.4995 21.8098 6.58963 21.8579C6.60013 21.8632 6.60625 21.8736 6.61675 21.878C6.63075 21.885 6.64475 21.8815 6.65875 21.8877C6.76637 21.9332 6.87838 21.9646 6.9965 21.9655H6.99737H6.99825C7.1155 21.9646 7.22838 21.9332 7.336 21.8877C7.35 21.8815 7.364 21.885 7.378 21.878C7.3885 21.8728 7.39462 21.8623 7.40512 21.8579C7.49525 21.8098 7.57925 21.7503 7.64837 21.6724C7.658 21.661 7.66325 21.6488 7.67113 21.6374C7.71313 21.5858 7.75338 21.5342 7.78313 21.472L13.3831 9.9019C13.384 9.8984 13.384 9.8949 13.3857 9.89228C13.3875 9.88703 13.3919 9.88353 13.3945 9.87828C13.7979 8.98665 14 8.03028 14 7.0354ZM7 1.7854C9.89538 1.7854 12.25 4.14003 12.25 7.0354C12.25 7.78265 12.0995 8.4984 11.802 9.16165L7 19.0815L2.198 9.16078C1.9005 8.4984 1.75 7.78265 1.75 7.0354C1.75 4.14003 4.10462 1.7854 7 1.7854ZM7 10.4392C8.87775 10.4392 10.4046 8.91228 10.4046 7.03453C10.4046 5.15678 8.87775 3.63078 7 3.63078C5.12225 3.63078 3.59538 5.15765 3.59538 7.0354C3.59538 8.91315 5.12225 10.4392 7 10.4392ZM7 5.38078C7.91175 5.38078 8.65463 6.12278 8.65463 7.0354C8.65463 7.94803 7.91175 8.68915 7 8.68915C6.08825 8.68915 5.34538 7.94715 5.34538 7.03453C5.34538 6.1219 6.08825 5.38078 7 5.38078Z" fill="#EE8555"/>
</svg>
