<svg width="24" height="18" viewBox="0 0 24 18" fill="none" xmlns="http://www.w3.org/2000/svg">
<path d="M20.905 0.0625H3.09497C1.7511 0.0625 0.657471 1.15612 0.657471 2.5V15.5C0.657471 16.8439 1.7511 17.9375 3.09497 17.9375H20.905C22.2488 17.9375 23.3425 16.8439 23.3425 15.5V2.5C23.3425 1.15612 22.2488 0.0625 20.905 0.0625ZM11.9837 6.44388L3.85791 1.6875H20.1372L11.9837 6.44388ZM20.905 16.3125H3.09497C2.64647 16.3125 2.28247 15.9477 2.28247 15.5V2.64788L11.5572 8.07619C11.6855 8.15175 11.8269 8.1875 11.9667 8.1875C11.9723 8.1875 11.978 8.18587 11.9837 8.18506C11.9894 8.18506 11.9951 8.1875 12.0008 8.1875C12.1397 8.1875 12.2811 8.15175 12.4095 8.077L21.7175 2.64706V15.5C21.7175 15.9477 21.3535 16.3125 20.905 16.3125Z" fill="#EE8555"/>
</svg>
